<?xml version="1.0" encoding="utf-8"?>
<!-- Generator: Adobe Illustrator 19.0.0, SVG Export Plug-In . SVG Version: 6.00 Build 0)  -->
<svg version="1.1" id="Layer_1" xmlns="http://www.w3.org/2000/svg" xmlns:xlink="http://www.w3.org/1999/xlink" x="0px" y="0px"
	 viewBox="-191 441 64 64" style="enable-background:new -191 441 64 64;" xml:space="preserve">
<style type="text/css">
	.st0{fill:#FFFFFF;}
</style>
<path class="st0" d="M-133.8,488.6v-27.2c0-0.4-0.2-0.8-0.5-1l-3.1-2.2l2.4-1.5c0.3-0.2,0.6-0.6,0.6-1c0-0.4-0.2-0.8-0.5-1.1
	l-2.3-1.7v-0.8h2.1c0.7,0,1.3-0.6,1.3-1.3v-2.5c0-4.1-3.3-7.4-7.4-7.4h-42.6c0,0,0,0,0,0c0,0-0.1,0-0.1,0c-2,0-3.8,1-5.1,2.7
	c-1.3,1.7-2,3.9-2,6.2c0,4.2,2.7,7.6,6.1,7.6h6.9v19.8c0,0.4,0.2,0.8,0.6,1l2.5,1.6l-2.6,2.3c-0.3,0.2-0.4,0.6-0.4,0.9V494
	c0,0.1,0,0.1,0,0.2c0,0.1,0,0.1,0,0.2c0,3.2,0.8,5.9,2.4,7.7c1.5,1.8,3.6,2.8,6,2.8h34.4c4.5,0,8.3-3.7,8.3-8.3
	C-127,492.7-129.9,489.3-133.8,488.6z M-180.7,455c0.4-0.7,0.6-1.5,0.6-2.4c0-2.9-1.9-4.9-4.5-4.9c-0.7,0-1.3,0.6-1.3,1.3
	s0.6,1.3,1.3,1.3c1.3,0,2,0.9,2,2.4c0,1.5-1.2,2.4-2.2,2.4c-1.9,0-3.6-2.3-3.6-5.1c0-3.5,2.1-6.4,4.6-6.4c1.8,0,3.1,0.5,4.1,1.6
	c1.2,1.3,1.8,3.5,1.8,6.4v3.4H-180.7z M-173.7,500.6c-1.2-1.4-1.8-3.6-1.8-6.1c0-0.1,0-0.1,0-0.2c0-0.1,0-0.1,0-0.2v-10.3l3.4-3
	c0.3-0.3,0.4-0.6,0.4-1c0-0.4-0.2-0.7-0.6-1l-3.3-2.1v-25.1c0-3.5-0.8-6.3-2.4-8.1h36.7c2.7,0,4.9,2.2,4.9,4.9v1.3h-2.1
	c-0.7,0-1.3,0.6-1.3,1.3v2.7c0,0.4,0.2,0.8,0.5,1l1.3,1l-2.5,1.5c-0.4,0.2-0.6,0.6-0.6,1s0.2,0.8,0.5,1.1l4.1,3v26.4H-168
	c-0.1,0-0.1,0-0.2,0c-0.1,0-0.2,0-0.4,0c-2.7,0-4.7,2.1-4.7,4.9c0,2.9,1.9,4.9,4.5,4.9c0.7,0,1.3-0.6,1.3-1.3s-0.6-1.3-1.3-1.3
	c-1.3,0-2-0.9-2-2.4c0-1.5,1.2-2.4,2.2-2.4c1.9,0,3.6,2.3,3.6,5.1c0,3.5-2.1,6.4-4.6,6.4C-171.2,502.5-172.7,501.8-173.7,500.6z
	 M-135.3,502.5h-29.4c0.1-0.1,0.1-0.2,0.2-0.2c1.2-1.6,1.9-3.6,2-5.8h19.5c0.7,0,1.3-0.6,1.3-1.3s-0.6-1.3-1.3-1.3h-19.7
	c-0.3-1.1-0.7-2.2-1.3-3h28.8c3.2,0,5.8,2.6,5.8,5.8S-132.1,502.5-135.3,502.5z"/>
<path class="st0" d="M-167.3,453.3c0.3,0,0.6-0.1,0.9-0.4c0.2-0.2,0.4-0.6,0.4-0.9s-0.1-0.7-0.4-0.9c-0.2-0.2-0.6-0.4-0.9-0.4
	c-0.3,0-0.7,0.1-0.9,0.4s-0.4,0.6-0.4,0.9s0.1,0.7,0.4,0.9S-167.7,453.3-167.3,453.3z"/>
<path class="st0" d="M-162,453.3h18c0.7,0,1.3-0.6,1.3-1.3s-0.6-1.3-1.3-1.3h-18c-0.7,0-1.3,0.6-1.3,1.3S-162.7,453.3-162,453.3z"/>
<path class="st0" d="M-167.3,460.3h23.4c0.7,0,1.3-0.6,1.3-1.3s-0.6-1.3-1.3-1.3h-23.4c-0.7,0-1.3,0.6-1.3,1.3
	S-168,460.3-167.3,460.3z"/>
<path class="st0" d="M-167.3,467.3h23.4c0.7,0,1.3-0.6,1.3-1.3s-0.6-1.3-1.3-1.3h-23.4c-0.7,0-1.3,0.6-1.3,1.3
	S-168,467.3-167.3,467.3z"/>
<path class="st0" d="M-167.3,474.3h23.4c0.7,0,1.3-0.6,1.3-1.3s-0.6-1.3-1.3-1.3h-23.4c-0.7,0-1.3,0.6-1.3,1.3
	S-168,474.3-167.3,474.3z"/>
<path class="st0" d="M-167.3,481.3h23.4c0.7,0,1.3-0.6,1.3-1.3s-0.6-1.3-1.3-1.3h-23.4c-0.7,0-1.3,0.6-1.3,1.3
	S-168,481.3-167.3,481.3z"/>
<path class="st0" d="M-138.1,494c-0.3,0-0.7,0.1-0.9,0.4s-0.4,0.6-0.4,0.9s0.1,0.7,0.4,0.9c0.2,0.2,0.6,0.4,0.9,0.4
	c0.3,0,0.7-0.1,0.9-0.4c0.2-0.2,0.4-0.6,0.4-0.9s-0.1-0.7-0.4-0.9C-137.5,494.1-137.8,494-138.1,494z"/>
</svg>
